<mxfile host="app.diagrams.net" modified="2023-06-14T16:52:46.996Z" agent="Mozilla/5.0 (Windows NT 10.0; Win64; x64; rv:109.0) Gecko/20100101 Firefox/114.0" etag="6p8xV5v9uK3Kozu37UOl" version="21.3.4" type="github" pages="2">
  <diagram id="prtHgNgQTEPvFCAcTncT" name="Page-1">
    <mxGraphModel dx="1434" dy="739" grid="1" gridSize="10" guides="1" tooltips="1" connect="1" arrows="1" fold="1" page="1" pageScale="1" pageWidth="827" pageHeight="1169" math="0" shadow="0">
      <root>
        <mxCell id="0" />
        <mxCell id="1" parent="0" />
        <mxCell id="on3MLtga4FL7BhGuagQa-1" value="Tickets for Changes/Releases" style="swimlane;childLayout=stackLayout;resizeParent=1;resizeParentMax=0;startSize=20;html=1;" vertex="1" parent="1">
          <mxGeometry x="120" y="30" width="720" height="730" as="geometry" />
        </mxCell>
        <mxCell id="on3MLtga4FL7BhGuagQa-2" value="RFC" style="swimlane;startSize=20;html=1;" vertex="1" parent="on3MLtga4FL7BhGuagQa-1">
          <mxGeometry y="20" width="160" height="710" as="geometry" />
        </mxCell>
        <mxCell id="on3MLtga4FL7BhGuagQa-11" style="edgeStyle=orthogonalEdgeStyle;rounded=0;orthogonalLoop=1;jettySize=auto;html=1;" edge="1" parent="on3MLtga4FL7BhGuagQa-2" source="on3MLtga4FL7BhGuagQa-6" target="on3MLtga4FL7BhGuagQa-8">
          <mxGeometry relative="1" as="geometry" />
        </mxCell>
        <mxCell id="on3MLtga4FL7BhGuagQa-6" value="New Request for Change" style="strokeWidth=2;html=1;shape=mxgraph.flowchart.document2;whiteSpace=wrap;size=0.25;fontSize=10;" vertex="1" parent="on3MLtga4FL7BhGuagQa-2">
          <mxGeometry x="20" y="50" width="100" height="60" as="geometry" />
        </mxCell>
        <mxCell id="on3MLtga4FL7BhGuagQa-12" style="edgeStyle=orthogonalEdgeStyle;rounded=0;orthogonalLoop=1;jettySize=auto;html=1;" edge="1" parent="on3MLtga4FL7BhGuagQa-2" source="on3MLtga4FL7BhGuagQa-8" target="on3MLtga4FL7BhGuagQa-9">
          <mxGeometry relative="1" as="geometry" />
        </mxCell>
        <mxCell id="on3MLtga4FL7BhGuagQa-8" value="Fill form data" style="html=1;strokeWidth=2;shape=manualInput;whiteSpace=wrap;rounded=1;size=26;arcSize=11;fontSize=10;" vertex="1" parent="on3MLtga4FL7BhGuagQa-2">
          <mxGeometry x="20" y="130" width="100" height="60" as="geometry" />
        </mxCell>
        <mxCell id="on3MLtga4FL7BhGuagQa-13" style="edgeStyle=orthogonalEdgeStyle;rounded=0;orthogonalLoop=1;jettySize=auto;html=1;" edge="1" parent="on3MLtga4FL7BhGuagQa-2" source="on3MLtga4FL7BhGuagQa-9" target="on3MLtga4FL7BhGuagQa-10">
          <mxGeometry relative="1" as="geometry" />
        </mxCell>
        <mxCell id="on3MLtga4FL7BhGuagQa-9" value="&lt;div&gt;Change &lt;br&gt;&lt;/div&gt;&lt;div&gt;assigment for &lt;b&gt;VR Digital DevOps&lt;/b&gt;&lt;/div&gt;" style="html=1;strokeWidth=2;shape=manualInput;whiteSpace=wrap;rounded=1;size=26;arcSize=11;fontSize=10;" vertex="1" parent="on3MLtga4FL7BhGuagQa-2">
          <mxGeometry x="20" y="210" width="100" height="80" as="geometry" />
        </mxCell>
        <mxCell id="on3MLtga4FL7BhGuagQa-18" style="edgeStyle=orthogonalEdgeStyle;rounded=0;orthogonalLoop=1;jettySize=auto;html=1;" edge="1" parent="on3MLtga4FL7BhGuagQa-2" source="on3MLtga4FL7BhGuagQa-10" target="on3MLtga4FL7BhGuagQa-15">
          <mxGeometry relative="1" as="geometry" />
        </mxCell>
        <mxCell id="on3MLtga4FL7BhGuagQa-10" value="Submit" style="rounded=1;whiteSpace=wrap;html=1;absoluteArcSize=1;arcSize=14;strokeWidth=2;fontSize=10;" vertex="1" parent="on3MLtga4FL7BhGuagQa-2">
          <mxGeometry x="20" y="320" width="100" height="40" as="geometry" />
        </mxCell>
        <mxCell id="on3MLtga4FL7BhGuagQa-19" style="edgeStyle=orthogonalEdgeStyle;rounded=0;orthogonalLoop=1;jettySize=auto;html=1;" edge="1" parent="on3MLtga4FL7BhGuagQa-2" source="on3MLtga4FL7BhGuagQa-15" target="on3MLtga4FL7BhGuagQa-16">
          <mxGeometry relative="1" as="geometry" />
        </mxCell>
        <mxCell id="on3MLtga4FL7BhGuagQa-15" value="Fill Scoping" style="html=1;strokeWidth=2;shape=manualInput;whiteSpace=wrap;rounded=1;size=26;arcSize=11;fontSize=10;" vertex="1" parent="on3MLtga4FL7BhGuagQa-2">
          <mxGeometry x="20" y="390" width="100" height="60" as="geometry" />
        </mxCell>
        <mxCell id="on3MLtga4FL7BhGuagQa-22" style="edgeStyle=orthogonalEdgeStyle;rounded=0;orthogonalLoop=1;jettySize=auto;html=1;" edge="1" parent="on3MLtga4FL7BhGuagQa-2" source="on3MLtga4FL7BhGuagQa-16" target="on3MLtga4FL7BhGuagQa-20">
          <mxGeometry relative="1" as="geometry" />
        </mxCell>
        <mxCell id="on3MLtga4FL7BhGuagQa-16" value="Scoped" style="rounded=1;whiteSpace=wrap;html=1;absoluteArcSize=1;arcSize=14;strokeWidth=2;fontSize=10;" vertex="1" parent="on3MLtga4FL7BhGuagQa-2">
          <mxGeometry x="20" y="480" width="100" height="40" as="geometry" />
        </mxCell>
        <mxCell id="on3MLtga4FL7BhGuagQa-21" value="" style="group" vertex="1" connectable="0" parent="on3MLtga4FL7BhGuagQa-2">
          <mxGeometry x="10" y="550" width="110" height="50" as="geometry" />
        </mxCell>
        <mxCell id="on3MLtga4FL7BhGuagQa-20" value="&lt;br&gt;&lt;div&gt;Approval&lt;/div&gt;" style="html=1;strokeWidth=2;shape=manualInput;whiteSpace=wrap;rounded=1;size=26;arcSize=11;" vertex="1" parent="on3MLtga4FL7BhGuagQa-21">
          <mxGeometry x="10" width="100" height="50" as="geometry" />
        </mxCell>
        <mxCell id="on3MLtga4FL7BhGuagQa-5" value="&lt;div&gt;&lt;br&gt;&lt;/div&gt;&lt;div&gt;SM&lt;/div&gt;" style="shape=actor;whiteSpace=wrap;html=1;" vertex="1" parent="on3MLtga4FL7BhGuagQa-21">
          <mxGeometry width="30" height="40" as="geometry" />
        </mxCell>
        <mxCell id="on3MLtga4FL7BhGuagQa-23" value="Implementation Change" style="rounded=1;whiteSpace=wrap;html=1;absoluteArcSize=1;arcSize=14;strokeWidth=2;fontSize=10;" vertex="1" parent="on3MLtga4FL7BhGuagQa-2">
          <mxGeometry x="20" y="640" width="100" height="40" as="geometry" />
        </mxCell>
        <mxCell id="on3MLtga4FL7BhGuagQa-25" style="edgeStyle=orthogonalEdgeStyle;rounded=0;orthogonalLoop=1;jettySize=auto;html=1;" edge="1" parent="on3MLtga4FL7BhGuagQa-2" source="on3MLtga4FL7BhGuagQa-20" target="on3MLtga4FL7BhGuagQa-23">
          <mxGeometry relative="1" as="geometry" />
        </mxCell>
        <mxCell id="on3MLtga4FL7BhGuagQa-3" value="CHG" style="swimlane;startSize=20;html=1;" vertex="1" parent="on3MLtga4FL7BhGuagQa-1">
          <mxGeometry x="160" y="20" width="290" height="710" as="geometry" />
        </mxCell>
        <mxCell id="on3MLtga4FL7BhGuagQa-53" style="edgeStyle=orthogonalEdgeStyle;rounded=0;orthogonalLoop=1;jettySize=auto;html=1;" edge="1" parent="on3MLtga4FL7BhGuagQa-3" source="on3MLtga4FL7BhGuagQa-14" target="on3MLtga4FL7BhGuagQa-26">
          <mxGeometry relative="1" as="geometry" />
        </mxCell>
        <mxCell id="on3MLtga4FL7BhGuagQa-14" value="New Change Request" style="strokeWidth=2;html=1;shape=mxgraph.flowchart.document2;whiteSpace=wrap;size=0.25;fontSize=10;" vertex="1" parent="on3MLtga4FL7BhGuagQa-3">
          <mxGeometry x="90" y="50" width="100" height="60" as="geometry" />
        </mxCell>
        <mxCell id="on3MLtga4FL7BhGuagQa-54" style="edgeStyle=orthogonalEdgeStyle;rounded=0;orthogonalLoop=1;jettySize=auto;html=1;" edge="1" parent="on3MLtga4FL7BhGuagQa-3" source="on3MLtga4FL7BhGuagQa-26" target="on3MLtga4FL7BhGuagQa-27">
          <mxGeometry relative="1" as="geometry" />
        </mxCell>
        <mxCell id="on3MLtga4FL7BhGuagQa-26" value="&lt;div&gt;&lt;br&gt;&lt;/div&gt;&lt;div&gt;Fill Deployment Details&lt;/div&gt;" style="html=1;strokeWidth=2;shape=manualInput;whiteSpace=wrap;rounded=1;size=26;arcSize=11;fontSize=10;" vertex="1" parent="on3MLtga4FL7BhGuagQa-3">
          <mxGeometry x="90" y="130" width="100" height="60" as="geometry" />
        </mxCell>
        <mxCell id="on3MLtga4FL7BhGuagQa-55" style="edgeStyle=orthogonalEdgeStyle;rounded=0;orthogonalLoop=1;jettySize=auto;html=1;" edge="1" parent="on3MLtga4FL7BhGuagQa-3" source="on3MLtga4FL7BhGuagQa-27" target="on3MLtga4FL7BhGuagQa-33">
          <mxGeometry relative="1" as="geometry" />
        </mxCell>
        <mxCell id="on3MLtga4FL7BhGuagQa-56" style="edgeStyle=orthogonalEdgeStyle;rounded=0;orthogonalLoop=1;jettySize=auto;html=1;" edge="1" parent="on3MLtga4FL7BhGuagQa-3" source="on3MLtga4FL7BhGuagQa-27" target="on3MLtga4FL7BhGuagQa-30">
          <mxGeometry relative="1" as="geometry" />
        </mxCell>
        <mxCell id="on3MLtga4FL7BhGuagQa-27" value="Send for Peer Review" style="rounded=1;whiteSpace=wrap;html=1;absoluteArcSize=1;arcSize=14;strokeWidth=2;fontSize=10;" vertex="1" parent="on3MLtga4FL7BhGuagQa-3">
          <mxGeometry x="90" y="230" width="100" height="40" as="geometry" />
        </mxCell>
        <mxCell id="on3MLtga4FL7BhGuagQa-29" value="" style="group" vertex="1" connectable="0" parent="on3MLtga4FL7BhGuagQa-3">
          <mxGeometry x="15" y="310" width="110" height="50" as="geometry" />
        </mxCell>
        <mxCell id="on3MLtga4FL7BhGuagQa-30" value="&lt;br&gt;&lt;div&gt;Approval&lt;/div&gt;" style="html=1;strokeWidth=2;shape=manualInput;whiteSpace=wrap;rounded=1;size=26;arcSize=11;" vertex="1" parent="on3MLtga4FL7BhGuagQa-29">
          <mxGeometry x="10" width="100" height="50" as="geometry" />
        </mxCell>
        <mxCell id="on3MLtga4FL7BhGuagQa-31" value="&lt;br&gt;&lt;div&gt;TM&lt;/div&gt;" style="shape=actor;whiteSpace=wrap;html=1;" vertex="1" parent="on3MLtga4FL7BhGuagQa-29">
          <mxGeometry width="30" height="40" as="geometry" />
        </mxCell>
        <mxCell id="on3MLtga4FL7BhGuagQa-32" value="" style="group" vertex="1" connectable="0" parent="on3MLtga4FL7BhGuagQa-3">
          <mxGeometry x="150" y="310" width="110" height="50" as="geometry" />
        </mxCell>
        <mxCell id="on3MLtga4FL7BhGuagQa-33" value="&lt;br&gt;&lt;div&gt;Approval&lt;/div&gt;" style="html=1;strokeWidth=2;shape=manualInput;whiteSpace=wrap;rounded=1;size=26;arcSize=11;" vertex="1" parent="on3MLtga4FL7BhGuagQa-32">
          <mxGeometry x="10" width="100" height="50" as="geometry" />
        </mxCell>
        <mxCell id="on3MLtga4FL7BhGuagQa-34" value="&lt;div&gt;&lt;br&gt;&lt;/div&gt;&lt;div&gt;TL&lt;/div&gt;" style="shape=actor;whiteSpace=wrap;html=1;" vertex="1" parent="on3MLtga4FL7BhGuagQa-32">
          <mxGeometry width="30" height="40" as="geometry" />
        </mxCell>
        <mxCell id="on3MLtga4FL7BhGuagQa-35" value="" style="group" vertex="1" connectable="0" parent="on3MLtga4FL7BhGuagQa-3">
          <mxGeometry x="80" y="400" width="110" height="50" as="geometry" />
        </mxCell>
        <mxCell id="on3MLtga4FL7BhGuagQa-36" value="&lt;br&gt;&lt;div&gt;Approval&lt;/div&gt;" style="html=1;strokeWidth=2;shape=manualInput;whiteSpace=wrap;rounded=1;size=26;arcSize=11;" vertex="1" parent="on3MLtga4FL7BhGuagQa-35">
          <mxGeometry x="10" width="100" height="50" as="geometry" />
        </mxCell>
        <mxCell id="on3MLtga4FL7BhGuagQa-37" value="&lt;div&gt;&lt;br&gt;&lt;/div&gt;&lt;div&gt;SM&lt;/div&gt;" style="shape=actor;whiteSpace=wrap;html=1;" vertex="1" parent="on3MLtga4FL7BhGuagQa-35">
          <mxGeometry width="30" height="40" as="geometry" />
        </mxCell>
        <mxCell id="on3MLtga4FL7BhGuagQa-38" value="Create Release Change" style="rounded=1;whiteSpace=wrap;html=1;absoluteArcSize=1;arcSize=14;strokeWidth=2;fontSize=10;" vertex="1" parent="on3MLtga4FL7BhGuagQa-3">
          <mxGeometry x="90" y="500" width="100" height="40" as="geometry" />
        </mxCell>
        <mxCell id="on3MLtga4FL7BhGuagQa-57" style="edgeStyle=orthogonalEdgeStyle;rounded=0;orthogonalLoop=1;jettySize=auto;html=1;" edge="1" parent="on3MLtga4FL7BhGuagQa-3" source="on3MLtga4FL7BhGuagQa-33" target="on3MLtga4FL7BhGuagQa-36">
          <mxGeometry relative="1" as="geometry" />
        </mxCell>
        <mxCell id="on3MLtga4FL7BhGuagQa-58" style="edgeStyle=orthogonalEdgeStyle;rounded=0;orthogonalLoop=1;jettySize=auto;html=1;" edge="1" parent="on3MLtga4FL7BhGuagQa-3" source="on3MLtga4FL7BhGuagQa-30" target="on3MLtga4FL7BhGuagQa-36">
          <mxGeometry relative="1" as="geometry" />
        </mxCell>
        <mxCell id="on3MLtga4FL7BhGuagQa-59" style="edgeStyle=orthogonalEdgeStyle;rounded=0;orthogonalLoop=1;jettySize=auto;html=1;" edge="1" parent="on3MLtga4FL7BhGuagQa-3" source="on3MLtga4FL7BhGuagQa-36" target="on3MLtga4FL7BhGuagQa-38">
          <mxGeometry relative="1" as="geometry" />
        </mxCell>
        <mxCell id="on3MLtga4FL7BhGuagQa-4" value="RLS" style="swimlane;startSize=20;html=1;" vertex="1" parent="on3MLtga4FL7BhGuagQa-1">
          <mxGeometry x="450" y="20" width="270" height="710" as="geometry" />
        </mxCell>
        <mxCell id="on3MLtga4FL7BhGuagQa-61" style="edgeStyle=orthogonalEdgeStyle;rounded=0;orthogonalLoop=1;jettySize=auto;html=1;" edge="1" parent="on3MLtga4FL7BhGuagQa-4" source="on3MLtga4FL7BhGuagQa-39" target="on3MLtga4FL7BhGuagQa-45">
          <mxGeometry relative="1" as="geometry" />
        </mxCell>
        <mxCell id="on3MLtga4FL7BhGuagQa-62" style="edgeStyle=orthogonalEdgeStyle;rounded=0;orthogonalLoop=1;jettySize=auto;html=1;" edge="1" parent="on3MLtga4FL7BhGuagQa-4" source="on3MLtga4FL7BhGuagQa-39" target="on3MLtga4FL7BhGuagQa-42">
          <mxGeometry relative="1" as="geometry" />
        </mxCell>
        <mxCell id="on3MLtga4FL7BhGuagQa-39" value="New Release Change" style="strokeWidth=2;html=1;shape=mxgraph.flowchart.document2;whiteSpace=wrap;size=0.25;fontSize=10;" vertex="1" parent="on3MLtga4FL7BhGuagQa-4">
          <mxGeometry x="80.5" y="50" width="100" height="60" as="geometry" />
        </mxCell>
        <mxCell id="on3MLtga4FL7BhGuagQa-41" value="" style="group" vertex="1" connectable="0" parent="on3MLtga4FL7BhGuagQa-4">
          <mxGeometry x="11" y="150" width="110" height="50" as="geometry" />
        </mxCell>
        <mxCell id="on3MLtga4FL7BhGuagQa-42" value="&lt;br&gt;&lt;div&gt;Approval&lt;/div&gt;" style="html=1;strokeWidth=2;shape=manualInput;whiteSpace=wrap;rounded=1;size=26;arcSize=11;" vertex="1" parent="on3MLtga4FL7BhGuagQa-41">
          <mxGeometry x="10" width="100" height="50" as="geometry" />
        </mxCell>
        <mxCell id="on3MLtga4FL7BhGuagQa-43" value="&lt;br&gt;&lt;div&gt;TM&lt;/div&gt;" style="shape=actor;whiteSpace=wrap;html=1;" vertex="1" parent="on3MLtga4FL7BhGuagQa-41">
          <mxGeometry width="30" height="40" as="geometry" />
        </mxCell>
        <mxCell id="on3MLtga4FL7BhGuagQa-44" value="" style="group" vertex="1" connectable="0" parent="on3MLtga4FL7BhGuagQa-4">
          <mxGeometry x="146" y="150" width="110" height="50" as="geometry" />
        </mxCell>
        <mxCell id="on3MLtga4FL7BhGuagQa-45" value="&lt;br&gt;&lt;div&gt;Approval&lt;/div&gt;" style="html=1;strokeWidth=2;shape=manualInput;whiteSpace=wrap;rounded=1;size=26;arcSize=11;" vertex="1" parent="on3MLtga4FL7BhGuagQa-44">
          <mxGeometry x="10" width="100" height="50" as="geometry" />
        </mxCell>
        <mxCell id="on3MLtga4FL7BhGuagQa-46" value="&lt;div&gt;&lt;br&gt;&lt;/div&gt;&lt;div&gt;TL&lt;/div&gt;" style="shape=actor;whiteSpace=wrap;html=1;" vertex="1" parent="on3MLtga4FL7BhGuagQa-44">
          <mxGeometry width="30" height="40" as="geometry" />
        </mxCell>
        <mxCell id="on3MLtga4FL7BhGuagQa-47" value="" style="group" vertex="1" connectable="0" parent="on3MLtga4FL7BhGuagQa-4">
          <mxGeometry x="76" y="240" width="110" height="50" as="geometry" />
        </mxCell>
        <mxCell id="on3MLtga4FL7BhGuagQa-48" value="&lt;br&gt;&lt;div&gt;Approval&lt;/div&gt;" style="html=1;strokeWidth=2;shape=manualInput;whiteSpace=wrap;rounded=1;size=26;arcSize=11;" vertex="1" parent="on3MLtga4FL7BhGuagQa-47">
          <mxGeometry x="10" width="100" height="50" as="geometry" />
        </mxCell>
        <mxCell id="on3MLtga4FL7BhGuagQa-49" value="&lt;div&gt;&lt;br&gt;&lt;/div&gt;&lt;div&gt;SM&lt;/div&gt;" style="shape=actor;whiteSpace=wrap;html=1;" vertex="1" parent="on3MLtga4FL7BhGuagQa-47">
          <mxGeometry width="30" height="40" as="geometry" />
        </mxCell>
        <mxCell id="on3MLtga4FL7BhGuagQa-50" value="" style="group" vertex="1" connectable="0" parent="on3MLtga4FL7BhGuagQa-4">
          <mxGeometry x="76" y="330" width="110" height="50" as="geometry" />
        </mxCell>
        <mxCell id="on3MLtga4FL7BhGuagQa-51" value="&lt;br&gt;&lt;div&gt;Approval&lt;/div&gt;" style="html=1;strokeWidth=2;shape=manualInput;whiteSpace=wrap;rounded=1;size=26;arcSize=11;" vertex="1" parent="on3MLtga4FL7BhGuagQa-50">
          <mxGeometry x="10" width="100" height="50" as="geometry" />
        </mxCell>
        <mxCell id="on3MLtga4FL7BhGuagQa-52" value="&lt;div&gt;&lt;br&gt;&lt;/div&gt;&lt;div&gt;C&lt;/div&gt;" style="shape=actor;whiteSpace=wrap;html=1;" vertex="1" parent="on3MLtga4FL7BhGuagQa-50">
          <mxGeometry width="30" height="40" as="geometry" />
        </mxCell>
        <mxCell id="on3MLtga4FL7BhGuagQa-63" style="edgeStyle=orthogonalEdgeStyle;rounded=0;orthogonalLoop=1;jettySize=auto;html=1;" edge="1" parent="on3MLtga4FL7BhGuagQa-4" source="on3MLtga4FL7BhGuagQa-45" target="on3MLtga4FL7BhGuagQa-48">
          <mxGeometry relative="1" as="geometry" />
        </mxCell>
        <mxCell id="on3MLtga4FL7BhGuagQa-64" style="edgeStyle=orthogonalEdgeStyle;rounded=0;orthogonalLoop=1;jettySize=auto;html=1;" edge="1" parent="on3MLtga4FL7BhGuagQa-4" source="on3MLtga4FL7BhGuagQa-42" target="on3MLtga4FL7BhGuagQa-48">
          <mxGeometry relative="1" as="geometry" />
        </mxCell>
        <mxCell id="on3MLtga4FL7BhGuagQa-65" style="edgeStyle=orthogonalEdgeStyle;rounded=0;orthogonalLoop=1;jettySize=auto;html=1;" edge="1" parent="on3MLtga4FL7BhGuagQa-4" source="on3MLtga4FL7BhGuagQa-48" target="on3MLtga4FL7BhGuagQa-51">
          <mxGeometry relative="1" as="geometry" />
        </mxCell>
        <mxCell id="on3MLtga4FL7BhGuagQa-24" style="edgeStyle=orthogonalEdgeStyle;rounded=0;orthogonalLoop=1;jettySize=auto;html=1;entryX=0;entryY=0.5;entryDx=0;entryDy=0;entryPerimeter=0;" edge="1" parent="on3MLtga4FL7BhGuagQa-1" source="on3MLtga4FL7BhGuagQa-23" target="on3MLtga4FL7BhGuagQa-14">
          <mxGeometry relative="1" as="geometry">
            <Array as="points">
              <mxPoint x="140" y="680" />
              <mxPoint x="140" y="100" />
            </Array>
          </mxGeometry>
        </mxCell>
        <mxCell id="on3MLtga4FL7BhGuagQa-60" style="edgeStyle=orthogonalEdgeStyle;rounded=0;orthogonalLoop=1;jettySize=auto;html=1;entryX=0;entryY=0.5;entryDx=0;entryDy=0;entryPerimeter=0;" edge="1" parent="on3MLtga4FL7BhGuagQa-1" source="on3MLtga4FL7BhGuagQa-38" target="on3MLtga4FL7BhGuagQa-39">
          <mxGeometry relative="1" as="geometry">
            <Array as="points">
              <mxPoint x="430" y="540" />
              <mxPoint x="430" y="100" />
            </Array>
          </mxGeometry>
        </mxCell>
      </root>
    </mxGraphModel>
  </diagram>
  <diagram id="osFY6MOKwH18N5K75ohq" name="Page-2">
    <mxGraphModel dx="1434" dy="739" grid="1" gridSize="10" guides="1" tooltips="1" connect="1" arrows="1" fold="1" page="1" pageScale="1" pageWidth="850" pageHeight="1100" math="0" shadow="0">
      <root>
        <mxCell id="0" />
        <mxCell id="1" parent="0" />
      </root>
    </mxGraphModel>
  </diagram>
</mxfile>
